PathFileType  4	(X/Y/Z) /Users/kristensteudel/Documents/NMBL_Research/BertecForceProcessing/anc_files/
DataRate	CameraRate	NumFrames	NumMarkers	Units	OrigDataRate	OrigDataStartFrame	OrigNumFrames
  200.0		  200.0		    9		     46		 mm	  200.0	      398	    636
Frame#	Time	r_knee			r_shank_antsup			r_ankle			r_calc			r_5meta			r_toe			L_knee			L_shank_antsup			L_ankle			L_calc			L_5meta			L_toe			r_sh2			r_sh3			r_sh4			L_sh2			L_sh3			r_thigh1			r_thigh2			r_thigh3			r_thigh4			r_thigh5			L_thigh1			L_thigh2			L_thigh3			L_thigh4			r.ASIS			r.PSIS			L.ASIS			L.PSIS			C7			R_Shoulder			L_Shoulder			Sternum			R_humerus			R_elbow_med			R_elbow_lat			R_forearm			R_wrist_radius			R_wrist_ulna			L_humerus			L_elbow_med			L_elbow_lat			L_forearm			L_wrist_radius			L_wrist_ulna			
		X1	Y1	Z1	X2	Y2	Z2	X3	Y3	Z3	X4	Y4	Z4	X5	Y5	Z5	X6	Y6	Z6	X7	Y7	Z7	X8	Y8	Z8	X9	Y9	Z9	X10	Y10	Z10	X11	Y11	Z11	X12	Y12	Z12	X13	Y13	Z13	X14	Y14	Z14	X15	Y15	Z15	X16	Y16	Z16	X17	Y17	Z17	X18	Y18	Z18	X19	Y19	Z19	X20	Y20	Z20	X21	Y21	Z21	X22	Y22	Z22	X23	Y23	Z23	X24	Y24	Z24	X25	Y25	Z25	X26	Y26	Z26	X27	Y27	Z27	X28	Y28	Z28	X29	Y29	Z29	X30	Y30	Z30	X31	Y31	Z31	X32	Y32	Z32	X33	Y33	Z33	X34	Y34	Z34	X35	Y35	Z35	X36	Y36	Z36	X37	Y37	Z37	X38	Y38	Z38	X39	Y39	Z39	X40	Y40	Z40	X41	Y41	Z41	X42	Y42	Z42	X43	Y43	Z43	X44	Y44	Z44	X45	Y45	Z45	X46	Y46	Z46	

398	1.98500	932.550	499.221	-171.193	928.411	379.157	-183.384	755.267	108.362	-247.377	673.458	84.639	-313.180	847.625	33.292	-207.097	898.204	48.464	-266.988	1026.029	528.006	-473.514	916.782	505.271	-471.773	634.970	635.300	-435.787	629.006	699.838	-388.455	526.335	510.118	-443.249	531.402	478.937	-370.813	883.062	270.703	-205.158	862.210	398.756	-154.723	808.292	301.539	-185.577	939.401	587.790	-502.694	819.912	614.112	-480.506	950.891	726.186	-113.968	971.821	617.690	-149.374	934.378	575.449	-143.411	841.067	696.555	-108.965	870.043	589.860	-148.322	1027.739	752.058	-453.640	1079.360	622.213	-446.842	928.883	716.088	-510.509	982.890	588.429	-487.523	887.454	982.339	-152.879	687.442	1028.402	-249.374	901.326	964.894	-418.745	698.423	1022.297	-354.261	836.597	1509.002	-278.982	888.804	1435.396	-68.712	902.045	1474.066	-474.926	981.398	1383.731	-279.929	835.226	1198.396	-29.603	695.962	1098.280	-71.328	719.594	1112.320	12.738	868.809	1019.172	-16.800	954.417	948.443	-43.168	919.485	911.250	-30.313	758.853	1277.544	-563.642	613.791	1226.855	-520.357	655.624	1255.129	-602.113	732.425	1096.228	-594.538	809.331	1017.079	-546.233	747.189	993.154	-580.176
399	1.99000	920.064	496.620	-172.112	907.974	373.339	-183.748	722.096	110.993	-247.145	639.508	89.118	-312.626	812.203	33.313	-206.775	862.983	48.262	-266.656	1044.781	539.576	-470.889	936.860	510.482	-469.836	647.657	624.442	-436.893	635.901	689.798	-391.043	548.084	492.446	-445.492	554.316	461.539	-373.063	856.308	267.516	-205.702	843.546	395.419	-152.835	784.147	302.495	-186.413	955.164	593.590	-501.572	833.681	614.206	-480.308	943.358	720.978	-115.618	961.555	612.069	-150.198	923.076	570.684	-143.527	832.529	694.348	-110.411	859.156	586.894	-148.654	1034.207	763.672	-450.061	1092.736	636.865	-443.155	938.787	723.229	-509.015	999.001	597.821	-485.634	886.791	980.145	-150.948	686.711	1028.093	-250.987	901.724	961.133	-417.237	697.592	1021.917	-355.275	836.187	1508.372	-278.300	891.145	1435.090	-69.694	899.503	1473.703	-475.137	980.869	1382.751	-281.184	843.861	1197.610	-29.314	705.396	1093.427	-68.194	732.245	1107.684	15.107	885.444	1023.627	-16.876	974.498	958.831	-44.463	942.409	919.732	-32.073	751.404	1281.399	-564.554	606.159	1232.591	-520.764	647.733	1261.227	-601.994	721.153	1100.308	-596.261	796.461	1019.241	-549.835	733.178	997.201	-582.192
400	1.99500	904.585	493.030	-172.613	885.868	366.917	-183.164	689.091	114.100	-246.227	605.552	94.588	-312.011	776.124	33.118	-206.941	827.442	48.081	-266.067	1062.354	552.461	-467.816	955.673	516.494	-467.395	659.815	612.333	-437.629	642.022	676.456	-391.913	571.300	472.770	-448.150	578.395	442.659	-374.733	828.317	264.732	-205.964	822.876	392.775	-152.369	757.862	303.725	-186.916	969.958	600.789	-500.446	848.660	614.597	-479.107	935.344	715.386	-117.004	950.314	605.905	-150.902	910.617	565.676	-143.715	823.899	692.200	-111.175	846.959	583.526	-148.401	1039.476	776.044	-446.748	1106.157	653.311	-439.575	947.759	730.685	-507.596	1014.507	608.633	-483.561	887.015	978.612	-149.415	686.598	1027.974	-251.581	902.436	957.977	-415.996	697.196	1021.771	-356.338	835.517	1508.190	-277.846	893.473	1435.946	-71.344	896.823	1474.140	-475.387	980.356	1382.709	-282.860	851.541	1197.907	-28.733	715.054	1090.088	-65.654	744.425	1104.666	17.288	900.897	1029.933	-16.909	993.186	971.932	-45.799	964.110	930.826	-33.100	744.660	1286.385	-565.507	598.676	1239.406	-521.156	640.585	1268.254	-601.749	710.186	1105.467	-597.767	785.319	1023.098	-553.039	720.329	1002.346	-583.542
401	2.00000	886.601	487.718	-172.824	862.875	361.011	-182.613	655.652	117.883	-245.022	571.446	101.256	-310.649	740.244	33.452	-205.921	791.250	47.933	-265.393	1078.783	565.716	-464.553	974.909	523.214	-463.651	672.170	598.682	-438.121	648.298	661.155	-392.574	595.929	452.310	-449.160	604.068	422.821	-376.284	800.762	262.110	-205.934	801.375	390.892	-152.860	731.863	304.171	-187.936	983.318	607.146	-497.987	861.397	613.703	-477.362	927.424	709.683	-117.849	937.864	599.363	-152.024	896.845	560.743	-143.969	815.211	690.622	-111.629	834.039	580.822	-148.217	1043.764	788.503	-444.002	1116.776	669.397	-435.787	955.907	737.961	-505.866	1028.349	619.409	-481.091	888.691	977.783	-148.630	687.304	1028.208	-252.083	903.101	955.433	-415.408	697.476	1022.231	-356.604	833.310	1509.935	-276.476	896.093	1437.604	-73.258	893.859	1475.225	-475.689	980.124	1383.282	-284.824	858.240	1198.914	-27.912	724.787	1087.879	-63.576	755.394	1103.188	19.143	915.255	1037.660	-17.040	1010.432	985.823	-47.955	984.302	943.621	-34.846	738.309	1292.480	-567.319	592.012	1246.654	-521.309	633.642	1276.125	-601.656	699.922	1111.697	-598.959	774.206	1028.227	-555.606	708.648	1008.619	-584.516
402	2.00500	866.934	481.626	-172.677	839.277	356.196	-182.626	622.525	122.119	-243.398	537.683	109.522	-308.716	704.022	33.501	-205.501	754.953	47.602	-264.925	1093.949	579.166	-461.049	992.993	529.855	-459.861	685.106	583.296	-438.328	654.999	643.785	-393.055	621.894	431.126	-450.754	631.311	402.209	-378.117	772.990	259.989	-204.873	779.206	388.742	-152.468	705.903	305.566	-186.009	995.843	613.557	-494.869	874.958	612.477	-475.092	919.577	703.640	-118.415	924.235	592.996	-151.576	882.334	556.204	-144.036	806.621	689.704	-112.229	820.517	578.922	-148.428	1047.517	801.225	-441.615	1126.100	685.471	-432.133	963.152	745.559	-504.547	1041.146	630.738	-478.468	888.985	976.876	-147.365	688.440	1028.964	-252.195	903.891	954.315	-415.900	697.654	1023.228	-356.723	832.421	1510.485	-276.204	899.193	1439.923	-75.425	890.953	1476.995	-476.022	980.159	1384.330	-287.065	864.384	1200.826	-26.960	735.056	1086.360	-61.864	765.413	1103.322	20.913	928.302	1047.411	-18.120	1026.209	1002.605	-50.700	1002.826	958.109	-37.114	732.305	1299.031	-568.097	585.766	1254.933	-521.416	627.229	1284.626	-601.618	690.854	1118.833	-600.094	764.726	1034.701	-557.709	697.841	1015.666	-585.152
403	2.01000	845.909	475.787	-172.553	814.591	352.901	-182.805	589.745	127.037	-241.667	504.427	118.892	-306.683	667.635	33.813	-204.894	718.396	47.531	-264.398	1108.003	592.936	-457.354	1011.482	535.025	-457.055	698.569	566.493	-438.438	662.374	624.491	-393.826	649.437	409.563	-451.993	660.322	381.645	-379.385	743.880	259.467	-204.520	756.213	387.361	-151.502	679.136	308.182	-185.102	1008.376	619.617	-490.863	886.747	610.012	-472.594	911.918	698.071	-119.149	910.824	586.790	-151.389	867.266	552.446	-144.330	798.447	689.611	-112.504	806.681	578.007	-148.451	1050.749	812.989	-440.070	1134.471	701.341	-428.971	969.714	753.218	-502.998	1052.576	642.141	-475.591	892.414	973.287	-146.783	690.380	1030.114	-251.343	904.644	955.721	-417.430	698.207	1024.734	-356.562	831.201	1511.502	-276.672	902.223	1442.754	-77.600	887.736	1479.288	-476.429	979.846	1385.950	-289.557	870.010	1203.583	-25.600	745.524	1086.289	-60.784	774.591	1104.568	22.652	940.327	1058.275	-18.645	1039.966	1019.982	-53.239	1019.718	974.763	-39.276	726.257	1306.002	-568.852	579.510	1263.769	-521.207	621.137	1293.570	-601.642	681.701	1126.886	-600.427	755.619	1041.993	-559.219	688.265	1023.563	-585.365
404	2.01500	824.484	471.633	-172.330	789.281	351.300	-181.938	557.406	132.695	-239.961	472.142	129.573	-304.681	631.161	34.387	-204.065	681.828	47.433	-263.864	1120.610	606.595	-453.974	1027.975	542.384	-452.309	713.392	548.804	-438.646	671.256	603.574	-394.298	679.092	388.271	-452.588	691.105	361.147	-380.071	714.284	260.780	-203.405	732.458	388.595	-151.164	651.749	312.829	-183.871	1019.569	625.884	-486.927	898.878	606.933	-469.987	904.519	692.627	-120.504	897.287	581.373	-151.854	851.712	549.328	-144.809	790.717	690.156	-112.441	792.506	578.069	-148.281	1053.687	824.872	-439.013	1142.125	716.957	-426.258	975.710	760.634	-501.812	1063.028	653.712	-472.673	895.550	971.032	-148.271	692.591	1031.294	-250.965	905.095	959.420	-418.837	699.382	1026.414	-355.733	830.086	1513.040	-276.192	905.233	1446.199	-80.216	884.381	1482.346	-476.729	977.256	1387.533	-292.308	875.447	1207.166	-24.482	755.258	1086.873	-60.685	782.614	1107.017	24.133	951.059	1070.425	-19.392	1051.913	1038.892	-55.541	1034.667	992.353	-41.816	720.463	1313.327	-569.527	573.429	1272.998	-521.015	615.234	1302.831	-601.685	673.769	1135.510	-600.814	747.415	1050.102	-560.041	679.616	1032.088	-585.319
405	2.02000	802.911	469.821	-170.776	763.858	351.673	-179.814	525.733	139.077	-238.041	441.171	141.255	-302.519	594.802	35.231	-203.794	645.495	47.335	-263.786	1132.287	620.536	-451.750	1043.891	549.209	-447.908	729.323	530.363	-438.475	681.857	581.101	-394.687	710.329	367.271	-452.672	723.173	341.296	-379.620	685.698	264.283	-200.685	708.324	392.451	-151.392	624.572	319.159	-182.186	1029.397	631.282	-482.575	911.833	601.267	-465.452	896.881	687.531	-122.046	883.189	576.432	-152.611	836.033	546.867	-145.599	783.390	691.552	-112.061	778.259	579.215	-147.958	1056.370	836.395	-438.518	1148.575	731.778	-423.745	981.354	767.923	-500.220	1072.145	664.340	-470.364	899.307	970.101	-148.875	695.503	1032.595	-249.016	905.439	964.689	-420.230	701.247	1028.394	-354.320	828.718	1515.052	-276.031	907.953	1450.478	-82.515	880.682	1485.910	-477.031	976.343	1390.259	-294.974	880.695	1211.557	-23.729	764.835	1088.787	-59.448	789.813	1110.528	25.881	960.522	1083.577	-20.341	1061.862	1059.119	-57.110	1048.105	1011.469	-44.113	714.936	1321.014	-570.162	567.510	1282.801	-520.810	609.667	1312.220	-601.711	666.587	1144.652	-601.025	739.674	1058.623	-560.405	671.753	1041.055	-585.073
406	2.02500	782.370	471.306	-169.744	738.792	355.202	-177.789	495.005	146.121	-236.058	411.797	153.691	-300.419	558.913	36.684	-203.196	609.326	47.416	-264.067	1142.147	633.251	-448.736	1059.275	555.477	-444.077	746.877	511.017	-438.002	694.235	557.675	-394.482	742.879	347.073	-452.308	758.022	322.706	-379.380	658.139	269.666	-197.703	684.241	398.273	-150.467	599.332	326.171	-181.776	1039.121	636.637	-478.217	922.296	599.118	-466.308	889.185	683.224	-123.819	868.522	572.639	-153.293	820.373	545.480	-145.910	776.364	693.635	-111.243	764.080	581.699	-146.545	1058.871	847.154	-438.175	1154.197	745.763	-421.525	986.327	774.657	-498.000	1079.730	675.067	-466.715	902.288	969.692	-151.162	698.639	1033.562	-246.446	906.124	970.721	-421.718	702.586	1030.404	-352.812	827.423	1517.536	-276.152	909.687	1454.685	-84.201	876.888	1489.995	-477.286	975.253	1393.445	-297.602	886.123	1216.552	-23.062	772.909	1091.932	-58.348	795.857	1115.239	27.491	968.636	1097.608	-21.399	1070.320	1078.546	-59.739	1059.582	1031.652	-46.546	709.397	1328.920	-570.709	561.930	1292.482	-520.467	604.285	1321.655	-601.620	659.924	1154.115	-601.067	732.748	1067.775	-560.428	664.985	1050.401	-584.619
